<?xml version="1.0" encoding="UTF-8" standalone="no"?>
<!-- Created with Inkscape (http://www.inkscape.org/) -->

<svg
   width="10mm"
   height="9.3429346mm"
   viewBox="0 0 10 9.3429346"
   version="1.1"
   id="svg1"
   inkscape:version="1.3.2 (091e20e, 2023-11-25, custom)"
   sodipodi:docname="logo.svg"
   xmlns:inkscape="http://www.inkscape.org/namespaces/inkscape"
   xmlns:sodipodi="http://sodipodi.sourceforge.net/DTD/sodipodi-0.dtd"
   xmlns="http://www.w3.org/2000/svg"
   xmlns:svg="http://www.w3.org/2000/svg">
  <sodipodi:namedview
     id="namedview1"
     pagecolor="#ffffff"
     bordercolor="#000000"
     borderopacity="0.25"
     inkscape:showpageshadow="2"
     inkscape:pageopacity="0.0"
     inkscape:pagecheckerboard="0"
     inkscape:deskcolor="#d1d1d1"
     inkscape:document-units="mm"
     inkscape:zoom="4.1798822"
     inkscape:cx="35.288076"
     inkscape:cy="97.251546"
     inkscape:window-width="2560"
     inkscape:window-height="1369"
     inkscape:window-x="-8"
     inkscape:window-y="-8"
     inkscape:window-maximized="1"
     inkscape:current-layer="layer1" />
  <defs
     id="defs1" />
  <g
     inkscape:label="Layer 1"
     inkscape:groupmode="layer"
     id="layer1">
    <path
       d="m 4.89698,9.3429342 c 2.572946,0 4.6714508,-2.0985027 4.6714508,-4.6714493 C 9.5684308,2.0985386 7.469926,0 4.89698,0 2.3240339,0 0.22553757,2.0985386 0.22553757,4.6714849 c 0,2.5729466 2.09849633,4.6714493 4.67144243,4.6714493"
       style="fill:#243f6b;fill-opacity:1;fill-rule:evenodd;stroke:none;stroke-width:0.00167759"
       id="path168" />
    <path
       d="m 7.0966613,2.697558 c -0.0098,-0.00105 -0.010098,1.331e-4 -0.01691,-0.00847 C 6.9330624,2.50492 7.2366406,2.6118838 7.2937124,2.6955457 7.4425319,2.913566 7.7389295,2.7418468 7.7401707,2.8206606 7.6001918,2.9112831 7.5880797,3.0026953 7.4045169,2.9678516 6.8818785,2.8686553 7.4909299,2.7401516 7.0966613,2.697558 Z M 5.8098274,2.6393286 c -0.011342,-0.00828 -0.01461,-0.040413 0.00973,-0.038837 0.2782128,0.017647 0.097804,0.1167607 -0.00973,0.038837 z m 0.02674,-0.3253697 c -0.027045,-0.059387 0.1363884,0.031405 0.1538022,0.042007 0.1496245,0.092016 0.04157,0.175292 0.024242,0.13763 C 5.9738799,2.4049015 5.92169,2.5009445 5.836569,2.3139591 Z M 5.5379055,2.3115244 C 5.5781006,2.2804557 5.6687749,2.2548554 5.7235482,2.2892443 5.8087031,2.3427763 5.6113,2.2671664 5.6156284,2.468898 5.6186109,2.6083732 5.2953416,2.4991447 5.5379055,2.3115227 Z m 0.162676,-0.2937975 c 0.085776,0.046117 0.086397,0.083645 0.1500275,0.163851 -0.066802,0.012263 -0.195507,0.025314 -0.1913128,-0.067104 0.00259,-0.056921 -0.3179217,0.00289 -0.2375142,-0.068882 0.1750404,-0.1562011 0.2270961,0.04605 0.2787995,-0.027865 z M 6.0308003,0.81829811 C 6.0300441,0.81331566 5.948682,0.72042717 5.9376438,0.70851618 5.7924644,0.55241586 5.9051316,0.60071394 5.9069433,0.59979124 6.0931735,0.50465472 5.9687292,0.76315556 6.0923009,0.776224 6.4532021,0.8145067 6.1719531,1.0339867 6.15865,0.9595517 6.1360691,0.83319515 6.0466201,0.92256074 6.0308003,0.81829811 Z M 6.4751282,1.1120955 c 0.00731,-0.12023326 0.1972525,0.011911 0.2394435,0.02716 0.1963127,0.070677 0.4441103,0.315321 0.2480998,0.2685329 C 6.4827278,1.2933933 6.9417677,1.4796404 7.0174621,1.582376 7.1498409,1.7620298 6.6541279,1.4669742 6.6438106,1.5361246 6.6217174,1.6849107 6.5230575,1.6103919 6.544363,1.6915205 6.6409255,2.0606084 6.3439742,1.7550174 6.348856,2.1035885 6.3498192,2.1735609 6.1720539,2.0707915 6.1607133,1.9364327 6.1359683,1.6422326 5.5621471,1.454929 5.5621471,1.2779594 5.5621471,1.0729067 5.9079832,1.1382492 5.9388516,1.11535 6.0584471,1.0267391 6.1426962,1.0763965 6.1197798,1.1047979 5.9861934,1.2708631 6.2303673,1.1891309 6.2776753,1.2428809 6.5213632,1.5196507 6.5447155,1.2298459 6.3942012,1.2076178 6.2652279,1.1885268 6.2042637,1.0815129 6.2549103,1.084952 c 0.010098,7.224e-4 0.048785,0.053801 0.2202179,0.027143 z M 6.0041265,0.53909579 c -0.5450844,-0.35236225 -0.2943339,0.0448756 -0.3552139,0.096965 -0.1286049,0.11003356 -0.091915,-0.0184032 0.030499,0.0826888 -0.067104,0.15011127 -0.4569102,-0.1650755 -0.668438,-0.1650755 -0.6729175,0 -0.597627,-0.0339039 -1.2533994,0.17314469 -0.2641376,0.0834436 -0.236172,0.0338539 -0.028553,-0.0945997 C 3.9199989,0.51403245 3.6022285,0.55176168 3.3696131,0.7753684 3.222555,0.91677301 2.7974856,0.95426732 3.0508024,1.1832759 3.2401528,1.354374 2.884855,1.822675 2.9811657,2.0742809 3.0599459,2.2800883 2.9909452,2.5505336 3.1495961,2.9492145 3.1866873,3.0424384 3.1799272,3.253782 3.3058142,3.2591 3.4302581,2.9614777 2.9804779,2.580294 3.2434074,2.5615724 c 0.2083911,-0.01493 0.3465912,0.7979149 0.253317,0.9348572 -0.067171,0.098592 0.013975,0.2817353 0.1684307,0.3043661 0.4761184,0.069805 0.2863319,0.4406375 0.5388607,0.4789538 0.2059918,0.031237 0.06848,0.3398645 0.3829282,0.442013 0.1713829,0.055596 0.087973,0.5512415 0.4434893,0.5374685 0.1360696,0.1505975 -0.117499,0.2536189 0,0.4248507 0.080374,0.1171972 -0.9552066,0.4893553 -0.5414107,0.746128 0.1128517,0.070054 0.07311,-0.0867 0.1304163,0.2769714 0.019526,0.1241416 0.1200485,0.7062342 0.2289415,0.7322703 L 4.7123776,7.6725202 c -0.01691,0.033482 -0.3360895,0.3808642 -0.4184091,0.496166 -0.2197484,0.3076376 0.016205,0.1773557 -0.3441087,0.2816518 -0.103558,0.029942 0.023854,0.1711651 -0.2508509,0.2330643 -0.07207,0.01626 -0.042208,0.1489928 0.060796,0.1886983 -9.96e-5,0.00323 0.4073709,-0.037875 0.5324355,-0.034102 0.307101,0.00915 0.3036619,-0.2234088 0.6177246,-0.2234088 1.2249638,0 -0.2677108,-0.1721201 0.9919964,-0.5674621 C 6.2567061,7.9357863 7.4043661,7.634775 7.3840169,7.1869413 7.3839694,7.1847853 7.1732272,6.9004079 7.0407975,6.8972197 7.025362,6.8968891 6.7220879,6.6517715 6.7227757,6.6308677 6.7271596,6.4927684 7.0192403,6.3549196 6.6450861,6.10724 6.4310246,5.9655658 6.4548801,5.4776204 5.8989418,5.4776204 5.8381287,5.4776204 5.6993077,4.9890877 5.2887163,5.2461961 5.1274824,5.3472208 5.2876026,5.1315827 5.0459008,5.1376725 4.7742139,5.1446165 5.1298476,4.6791684 4.7609444,4.4490023 4.5859878,4.3398074 4.765643,4.1855022 4.8872001,4.1276587 L 4.799814,3.9722629 c -0.5896581,0 -0.2840001,0.042997 -0.3860149,0.1110065 C 4.2361419,4.2017916 4.2135111,3.8475002 4.1457696,3.7455862 3.9093629,3.3895834 4.4289648,3.192231 4.4324037,3.1969787 4.5600689,3.3718848 5.0438375,3.3136722 5.2401998,3.40646 c 0.1853748,0.087654 0.019562,-0.015788 0.160026,0.2186578 0.018051,0.030012 -0.00252,0.5722786 0.1473435,0.369927 C 5.7353758,3.7415095 5.3498645,3.5344272 5.9554932,3.3657279 6.30799,3.2674879 6.2905595,3.0247398 6.6184793,3.050491 c 0.1054371,0.00824 0.206093,-0.1985269 0.407857,-0.093811 0.140113,0.072723 -0.249928,0.1289399 0.3746075,0.142327 -0.00324,0 0.2304514,-0.088795 0.3715372,0.025835 C 7.839283,3.179095 8.3556807,3.3718848 7.833261,2.8781683 7.7024916,2.7545286 7.9629388,2.6759335 7.6736872,2.4985778 7.459408,2.367155 7.6678328,2.068761 7.2821703,2.068761 c -0.1145465,0 -0.4426171,-0.4906466 -0.024411,-0.2289416 0.016976,0.010602 0.310322,0.096898 0.1642536,-0.084937 C 7.1972151,1.4750261 7.5465243,1.7789561 7.6390265,1.7951618 7.8667449,1.8349382 7.3846372,1.5164801 7.2747044,1.3153699 7.1454791,1.0788791 7.1306993,1.3049688 7.0546207,1.0375935 6.9746997,0.75661294 6.5663396,0.98828895 6.2379666,0.61358106 6.1787981,0.54602425 6.1236554,0.61638248 6.0041265,0.53909579 v 0"
       style="fill:#4d78b3;fill-opacity:1;fill-rule:evenodd;stroke:none;stroke-width:0.00167759"
       id="path170" />
    <path
       d="M 6.4195332,3.8662385 5.2366935,1.7789063 C 5.1505153,1.6267818 5.0553954,1.5089139 4.9248951,1.3925223 L 4.7063213,1.1975856 C 4.5914563,1.0951348 4.2207916,1.2852232 4.3000411,1.4172333 l 0.087554,0.1459508 C 4.5090192,1.7655526 4.5740933,1.9620494 4.5974958,2.1969297 L 4.8162042,4.393356 6.4195332,3.8662385"
       style="fill:#dedddb;fill-opacity:1;fill-rule:evenodd;stroke:none;stroke-width:0.00167759"
       id="path172" />
    <path
       d="M 1.6681946,4.8891527 6.6225054,3.1528407 C 7.6607527,2.7889702 8.829752,3.2393881 9.6991663,3.7980777 10.389865,4.241869 9.7716006,4.7861485 9.0471513,4.8838181 L 3.1376347,5.680542 C 1.7322788,5.8700266 0.36712979,5.4978013 1.6681946,4.8891527"
       style="fill:#e8e8e7;fill-opacity:1;fill-rule:evenodd;stroke:none;stroke-width:0.00167759"
       id="path174" />
    <path
       d="M 8.6155732,3.2518189 C 8.8787042,3.3479955 9.1328767,3.468363 9.3710454,3.6012286 9.3583283,4.0810884 8.7686209,4.1801167 8.0228787,4.1761746 7.8501368,4.1168044 7.6773608,4.0573671 7.5046189,3.9980138 c -0.020567,-0.00706 -0.033283,-0.026606 -0.031388,-0.048331 0.00192,-0.02169 0.017883,-0.038736 0.03939,-0.042074 0.6173054,-0.095757 1.0792649,-0.2679121 1.1029524,-0.6557892"
       style="fill:#7dade1;fill-opacity:1;fill-rule:evenodd;stroke:none;stroke-width:0.00167759"
       id="path176" />
    <path
       d="M 2.0569773,4.8378182 0.70619384,4.2338336 0.36576783,4.3765968 1.2265339,5.1735224 1.9713532,4.9953782 l 0.085624,-0.15756"
       style="fill:#dedddb;fill-opacity:1;fill-rule:evenodd;stroke:none;stroke-width:0.00167759"
       id="path178" />
    <path
       d="m 9.6116793,3.7428682 c 0.029457,0.018285 0.058654,0.036656 0.087491,0.055209 0.6906987,0.4437913 0.072434,0.9880708 -0.652015,1.0857404 L 3.1376347,5.680542 C 2.5198433,5.7638679 1.9099697,5.7385703 1.5308328,5.6324119 1.7931924,5.6311182 2.076404,5.6102162 2.36126,5.5675229 L 8.6388918,4.626676 C 9.2581422,4.533922 9.8040994,4.1350398 9.6116793,3.7428682"
       style="fill:#7dade1;fill-opacity:1;fill-rule:evenodd;stroke:none;stroke-width:0.00167759"
       id="path180" />
    <path
       d="m 1.9583348,5.2802003 c 0.063598,0 0.1331843,0.051553 0.1554295,0.1151503 0.022212,0.063598 -0.011307,0.1151335 -0.074922,0.1151335 -0.063581,0 -0.1331509,-0.051536 -0.1554123,-0.1151335 C 1.861202,5.3317536 1.89472,5.2802003 1.958335,5.2802003"
       style="fill:#7dade1;fill-opacity:1;fill-rule:evenodd;stroke:none;stroke-width:0.00167759"
       id="path182" />
    <path
       d="m 2.3760564,5.1839399 c 0.069217,0 0.1450618,0.056099 0.1695715,0.1252666 0.024459,0.0692 -0.011844,0.1252322 -0.080995,0.1252322 -0.069184,0 -0.1450956,-0.056032 -0.1695549,-0.1252322 C 2.270619,5.2400385 2.306889,5.1839399 2.376056,5.1839399"
       style="fill:#7dade1;fill-opacity:1;fill-rule:evenodd;stroke:none;stroke-width:0.00167759"
       id="path184" />
    <path
       d="m 2.8257528,5.0811536 c 0.074771,0 0.1570396,0.060595 0.1836968,0.1353654 0.026656,0.074771 -0.012262,0.1354155 -0.087033,0.1354155 -0.074754,0 -0.157023,-0.060645 -0.1837135,-0.1354155 -0.026657,-0.07477 0.012297,-0.1353654 0.08705,-0.1353654"
       style="fill:#7dade1;fill-opacity:1;fill-rule:evenodd;stroke:none;stroke-width:0.00167759"
       id="path186" />
    <path
       d="m 3.3127924,4.9707681 c 0.080324,0 0.1688669,0.065141 0.1977888,0.1455146 0.028905,0.080306 -0.012802,0.1454478 -0.093123,0.1454478 -0.080324,0 -0.1689172,-0.065141 -0.1978056,-0.1454478 -0.028923,-0.080374 0.012768,-0.1455146 0.09314,-0.1455146"
       style="fill:#7dade1;fill-opacity:1;fill-rule:evenodd;stroke:none;stroke-width:0.00167759"
       id="path188" />
    <path
       d="m 3.8436847,4.8514067 c 0.085993,0 0.1808279,0.069687 0.2119811,0.1555638 0.031136,0.085943 -0.013319,0.1556139 -0.099196,0.1556139 -0.085927,0 -0.1808451,-0.069671 -0.2119812,-0.1556139 -0.031103,-0.085876 0.013319,-0.1555638 0.099196,-0.1555638"
       style="fill:#7dade1;fill-opacity:1;fill-rule:evenodd;stroke:none;stroke-width:0.00167759"
       id="path190" />
    <path
       d="m 4.4272867,4.7213432 c 0.091496,0 0.1927727,0.074166 0.2260898,0.165679 0.033384,0.091446 -0.013756,0.1656628 -0.1052692,0.1656628 -0.091496,0 -0.1927727,-0.074217 -0.2260729,-0.1656628 -0.033384,-0.091513 0.013756,-0.165679 0.1052523,-0.165679"
       style="fill:#7dade1;fill-opacity:1;fill-rule:evenodd;stroke:none;stroke-width:0.00167759"
       id="path192" />
    <path
       d="m 5.0749563,4.5780761 c 0.097116,0 0.2046163,0.07873 0.2401981,0.1758623 0.035632,0.097066 -0.014243,0.1757788 -0.1112913,0.1757788 -0.097116,0 -0.2046668,-0.078713 -0.2402658,-0.1757788 -0.035581,-0.097133 0.014277,-0.1758623 0.111359,-0.1758623"
       style="fill:#7dade1;fill-opacity:1;fill-rule:evenodd;stroke:none;stroke-width:0.00167759"
       id="path194" />
    <path
       d="m 5.8024798,4.4186039 c 0.1026855,0 0.2165439,0.083259 0.2543904,0.1859112 0.037779,0.1026689 -0.014797,0.1858942 -0.1174991,0.1858942 -0.1026519,0 -0.2165775,-0.083225 -0.2543566,-0.1858942 -0.037779,-0.102652 0.014812,-0.1859112 0.1174653,-0.1859112"
       style="fill:#7dade1;fill-opacity:1;fill-rule:evenodd;stroke:none;stroke-width:0.00167759"
       id="path196" />
    <path
       d="m 6.6321346,4.2382288 c 0.1082557,0 0.2285055,0.087772 0.2684828,0.196027 0.040044,0.1082385 -0.015233,0.1960439 -0.123488,0.1960439 -0.1082554,0 -0.2284718,-0.087805 -0.2685498,-0.1960439 -0.039977,-0.1082551 0.0153,-0.196027 0.123555,-0.196027"
       style="fill:#7dade1;fill-opacity:1;fill-rule:evenodd;stroke:none;stroke-width:0.00167759"
       id="path198" />
    <path
       d="M 6.111174,5.14705 1.4090729,8.2851613 C 0.56086011,8.8512992 -0.38130069,8.0184905 0.15893165,7.9474945 0.31438441,7.9270444 0.50137587,7.9162911 0.62529658,7.8202329 L 3.6072777,5.5094945 C 4.2738875,4.9928787 6.8126107,4.6788999 6.111174,5.14705"
       style="fill:#e8e8e7;fill-opacity:1;fill-rule:evenodd;stroke:none;stroke-width:0.00167759"
       id="path200" />
    <path
       d="M 1.9713532,4.9953782 0.68313356,4.2939752 0.36576783,4.3765968 0.70619384,4.233783 2.0569773,4.8378182 l -0.085624,0.15756"
       style="fill:#cdcccb;fill-opacity:1;fill-rule:evenodd;stroke:none;stroke-width:0.00167759"
       id="path202" />
    <path
       d="M 6.111174,5.1471171 1.4090729,8.2851946 C 0.97250578,8.5765621 0.51107592,8.4973264 0.23967107,8.3421502 0.50082567,8.4089158 0.83150364,8.3930329 1.1489954,8.181168 L 5.8510794,5.0430221 C 5.9257834,4.9931801 5.9634283,4.9523311 5.9707929,4.919467 6.2318097,4.930071 6.3316438,4.999924 6.111174,5.1471171"
       style="fill:#dedddb;fill-opacity:1;fill-rule:evenodd;stroke:none;stroke-width:0.00167759"
       id="path204" />
    <path
       d="M 1.9923231,5.6267752 0.92885604,6.1609723 C 0.81764977,6.2168229 0.45396561,6.1738547 0.55932554,6.1075742 L 1.3853349,5.5879388 c 0.1716016,-0.1079535 0.7881518,-0.052123 0.6069882,0.038837"
       style="fill:#e8e8e7;fill-opacity:1;fill-rule:evenodd;stroke:none;stroke-width:0.00167759"
       id="path206" />
    <path
       d="M 1.9923231,5.6267752 0.92885604,6.1609723 c -0.057694,0.028972 -0.18331746,0.031308 -0.27615411,0.017698 0.0412452,-0.00395 0.0778055,-0.011831 0.10259519,-0.024273 L 1.888597,5.585154 C 1.91668,5.571028 1.926695,5.557725 1.922887,5.545647 2.015239,5.563078 2.0607857,5.592402 1.992322,5.626776"
       style="fill:#dedddb;fill-opacity:1;fill-rule:evenodd;stroke:none;stroke-width:0.00167759"
       id="path208" />
  </g>
</svg>
